# xmcd CD database file
#
# Track frame offsets:
#	150
#	18723
#	35520
#	56135
#	71670
#	89861
#	106853
#	128681
#	143238
#	162713
#	180429
#	199462
#	217159
#	235384
#	252043
#	270575
#	284714
#	302105
#
# Disc length: 4270 seconds
#
# Revision: 2
# Processed by: cddbd v1.5.2PL0 Copyright (c) Steve Scherf et al.
# Submitted via: CDex 1.70beta2
#
DISCID=2210ac12
DTITLE=Clifford Brown - 1526 Clifford Brown Memorial Album (RVG)
DYEAR=1900
DGENRE=Jazz
TTITLE0=Hymn Of The Orient
TTITLE1=Easy Living
TTITLE2=Minor Mood
TTITLE3=Cherokee
TTITLE4=Wail Bait
TTITLE5=Brownie Speaks
TTITLE6=De-Dah
TTITLE7=Cookin'
TTITLE8=You Go To My Head
TTITLE9=Carvin' The Rock
TTITLE10=Bellarosa
TTITLE11=Brownie Eyes
TTITLE12=Hymn Of The Orient(Alternate Take)
TTITLE13=Cherokee(Alternate Take)
TTITLE14=Wail Bait(Alternate Take)
TTITLE15=Cookin'(Alternate Take)
TTITLE16=Carvin' The Rock(Alternate Take#1)
TTITLE17=Carvin' The Rock(Alternate Take#2)
EXTD=
EXTT0=
EXTT1=
EXTT2=
EXTT3=
EXTT4=
EXTT5=
EXTT6=
EXTT7=
EXTT8=
EXTT9=
EXTT10=
EXTT11=
EXTT12=
EXTT13=
EXTT14=
EXTT15=
EXTT16=
EXTT17=
PLAYORDER=
